<?xml version="1.0" standalone="no"?>
<!DOCTYPE svg PUBLIC "-//W3C//DTD SVG 20010904//EN"
 "http://www.w3.org/TR/2001/REC-SVG-20010904/DTD/svg10.dtd">
<svg version="1.0" xmlns="http://www.w3.org/2000/svg"
 width="512.000000pt" height="512.000000pt" viewBox="0 0 512.000000 512.000000"
 preserveAspectRatio="xMidYMid meet">
<metadata>
Created by potrace 1.14, written by Peter Selinger 2001-2017
</metadata>
<g transform="translate(0.000000,512.000000) scale(0.100000,-0.100000)"
fill="#000000" stroke="none">
<path d="M2360 5110 c-19 -4 -53 -11 -75 -14 -278 -42 -578 -162 -820 -328
-341 -234 -610 -584 -748 -973 -61 -173 -102 -350 -122 -530 -14 -125 -14
-395 0 -520 20 -180 61 -357 122 -530 138 -389 407 -739 748 -973 242 -166
542 -286 820 -328 125 -19 395 -19 520 0 278 42 578 162 820 328 341 234 610
584 748 973 61 173 102 350 122 530 14 125 14 395 0 520 -20 180 -61 357
-122 530 -138 389 -407 739 -748 973 -242 166 -542 286 -820 328 -97 15 -428
28 -445 18z m440 -240 c569 -82 1087 -417 1426 -922 195 -291 310 -618 342
-973 14 -157 6 -432 -18 -570 -82 -469 -291 -884 -610 -1210 -326 -333 -741
-542 -1210 -610 -138 -20 -413 -20 -550 0 -469 68 -884 277 -1210 610 -319
326 -528 741 -610 1210 -24 138 -32 413 -18 570 32 355 147 682 342 973 339
505 857 840 1426 922 138 20 413 20 550 0z"/>
</g>
</svg>